<?xml version="1.0" encoding="UTF-8" standalone="no"?>
<svg
   xmlns:dc="http://purl.org/dc/elements/1.1/"
   xmlns:cc="http://creativecommons.org/ns#"
   xmlns:rdf="http://www.w3.org/1999/02/22-rdf-syntax-ns#"
   xmlns:svg="http://www.w3.org/2000/svg"
   xmlns="http://www.w3.org/2000/svg"
   xmlns:sodipodi="http://sodipodi.sourceforge.net/DTD/sodipodi-0.dtd"
   xmlns:inkscape="http://www.inkscape.org/namespaces/inkscape"
   width="121.41068mm"
   height="17.054619mm"
   viewBox="0 0 121.41068 17.054619"
   version="1.1"
   id="svg8"
   inkscape:version="1.0.2 (e86c8708, 2021-01-15)"
   sodipodi:docname="skybrush-logo.svg">
  <defs
     id="defs2" />
  <sodipodi:namedview
     id="base"
     pagecolor="#ffffff"
     bordercolor="#666666"
     borderopacity="1.0"
     inkscape:pageopacity="0.0"
     inkscape:pageshadow="2"
     inkscape:zoom="0.94242063"
     inkscape:cx="273.6467"
     inkscape:cy="32.514108"
     inkscape:document-units="mm"
     inkscape:current-layer="layer1"
     inkscape:document-rotation="0"
     showgrid="false"
     inkscape:window-width="1252"
     inkscape:window-height="855"
     inkscape:window-x="0"
     inkscape:window-y="23"
     inkscape:window-maximized="0" />
  <metadata
     id="metadata5">
    <rdf:RDF>
      <cc:Work
         rdf:about="">
        <dc:format>image/svg+xml</dc:format>
        <dc:type
           rdf:resource="http://purl.org/dc/dcmitype/StillImage" />
        <dc:title></dc:title>
      </cc:Work>
    </rdf:RDF>
  </metadata>
  <g
     inkscape:label="Layer 1"
     inkscape:groupmode="layer"
     id="layer1">
    <g
       id="g72">
      <path
         d="m 12.655916,12.027529 q 0,0.959116 -0.451997,1.896183 -0.440973,0.937067 -1.245748,1.587501 -0.881945,0.705557 -2.0615474,1.102432 -1.1685775,0.396875 -2.8222251,0.396875 -1.774915,0 -3.1970518,-0.330729 Q 1.4662341,16.349061 0,15.698627 v -2.734031 h 0.15434044 q 1.24574776,1.036286 2.87734666,1.598526 1.6315989,0.56224 3.0647601,0.56224 2.0284743,0 3.1529546,-0.760678 1.1355042,-0.760677 1.1355042,-2.028474 0,-1.091407 -0.5401911,-1.60955 Q 9.3155477,10.208517 8.2241403,9.9218848 7.3973166,9.7013985 6.4271767,9.5580823 5.4680611,9.4147662 4.3876781,9.1942799 2.2048634,8.7312586 1.1465289,7.6178026 0.09921885,6.4933223 0.09921885,4.6963586 q 0,-2.0615472 1.74184205,-3.3734409 Q 3.582903,-3.054738e-7 6.2618119,-3.054738e-7 q 1.7308178,0 3.1750033,0.3307295054738 1.4441858,0.3307295 2.5576418,0.8157994 V 3.7262188 H 11.840116 Q 10.903049,2.932468 9.3706693,2.4143251 7.8493135,1.8851579 6.2507876,1.8851579 q -1.7528664,0 -2.8222251,0.7276049 -1.0583344,0.7276049 -1.0583344,1.8741338 0,1.0252615 0.5291672,1.6095503 0.5291672,0.5842888 1.8631095,0.8929696 0.7055563,0.1543405 2.0064257,0.3748268 1.3008694,0.2204863 2.2048634,0.451997 1.8300361,0.4850699 2.7560791,1.4662341 0.926043,0.9811646 0.926043,2.7450546 z"
         style="fill:#000000;stroke:none;stroke-width:0.264583"
         id="path14" />
      <path
         id="path16"
         style="fill:#000000;stroke:none;stroke-width:1"
         d="m 61.291016,1.125 v 24.527344 h 8.25 V 1.125 Z m 38.375,0 -30.09961,32.347656 v 0.115235 h -8.27539 v 29.578125 h 8.25 V 42.125 l 6.167968,-6.583984 24.541016,27.625 h 10.70898 L 81.958984,30.291016 109.66602,1.125 Z"
         transform="scale(0.26458333)" />
      <path
         d="M 43.435808,0.29765625 37.659066,9.5139851 V 16.712864 H 35.476252 V 9.7454957 L 29.677461,0.29765625 h 2.414325 l 4.486897,7.34219495 4.530994,-7.34219495 z"
         style="fill:#000000;stroke:none;stroke-width:0.264583"
         id="path18" />
      <path
         id="path20"
         style="fill:#000000;stroke:none;stroke-width:1"
         d="M 172.75,1.125 V 18.146484 H 181 V 8.1660156 h 9.83398 c 2.75001,0 5.05491,0.098525 6.91602,0.2929688 1.86111,0.1666668 3.44444,0.6249991 4.75,1.375 1.11111,0.6388896 1.91601,1.4722206 2.41602,2.4999996 0.5,1.027779 0.75,2.291014 0.75,3.791016 0,1.805557 -0.27648,3.37565 -0.83204,4.708984 -0.52777,1.305557 -1.44444,2.373697 -2.75,3.207032 -1.30555,0.833334 -2.72221,1.390191 -4.25,1.667968 -1.52777,0.250001 -3.58463,0.375 -6.16796,0.375 H 181 172.75 v 37.082032 h 22 c 4.30556,0 7.84722,-0.388237 10.625,-1.166016 2.80556,-0.777779 5.37565,-2.08268 7.70898,-3.916016 1.97223,-1.527778 3.54037,-3.47287 4.70704,-5.833984 1.16666,-2.361114 1.75,-5.08268 1.75,-8.166016 0,-4.305559 -1.20834,-7.86241 -3.625,-10.667968 C 213.49935,30.582679 210.19445,28.736112 206,27.875 v -0.333984 c 2.5,-1.250002 4.5,-2.901474 6,-4.957032 1.5,-2.083335 2.25,-4.598521 2.25,-7.542968 0,-2.611114 -0.51324,-4.845918 -1.54102,-6.7070316 C 211.68121,6.4450937 210.02778,4.90343 207.75,3.7089844 205.69444,2.6534277 203.54102,1.9583337 201.29102,1.625 199.04101,1.2916663 195.65278,1.125 191.125,1.125 Z M 181,33.041016 h 12.95898 c 2.72223,0 5.02713,0.111762 6.91602,0.333984 1.91667,0.194445 3.54166,0.639539 4.875,1.333984 1.97222,1.027779 3.33398,2.277777 4.08398,3.75 0.75,1.472225 1.125,3.45703 1.125,5.957032 0,2.194446 -0.36176,3.986109 -1.08398,5.375 -0.72222,1.38889 -1.86046,2.62565 -3.41602,3.708984 -1.47222,1.000003 -3.36241,1.695096 -5.66796,2.083984 -2.30556,0.361112 -5.26389,0.541016 -8.875,0.541016 H 181 Z"
         transform="scale(0.26458333)" />
      <path
         id="path22"
         style="fill:#000000;stroke:none;stroke-width:1"
         d="m 231.25,1.125 v 22.5625 h 8.25 V 8.2089844 h 9.70898 c 2.22223,0 4.15213,0.1666663 5.79102,0.5 1.63889,0.3055559 3.05556,0.8604592 4.25,1.6660156 1.44445,0.944445 2.47287,2.11111 3.08398,3.5 0.63889,1.361112 0.95704,2.931205 0.95704,4.708984 0,2.333336 -0.30491,4.263237 -0.91602,5.791016 -0.58333,1.500002 -1.5,2.833332 -2.75,4 -1.36111,1.250001 -3.01454,2.111762 -4.95898,2.583984 -1.94445,0.444445 -4.22092,0.666016 -6.83204,0.666016 H 239.5 231.25 v 31.541016 h 8.25 V 38.5 h 11.625 l 20.75,24.666016 h 10.70898 L 259.25,36.041016 c 3.94445,-1.52778 7.04101,-3.791013 9.29102,-6.791016 2.25,-3.027781 3.375,-6.777773 3.375,-11.25 0,-3.305559 -0.63824,-6.027125 -1.91602,-8.1660156 -1.25,-2.1666691 -3,-3.9583321 -5.25,-5.375 C 262.75,3.2089831 260.5,2.3472227 258,1.875 c -2.5,-0.5000005 -5.625,-0.75 -9.375,-0.75 z"
         transform="scale(0.26458333)" />
      <path
         d="m 89.241847,10.120322 q 0,1.78594 -0.396875,3.119882 -0.385852,1.322918 -1.278821,2.204863 -0.848873,0.837849 -1.984377,1.2237 -1.135505,0.385851 -2.645836,0.385851 -1.543405,0 -2.689934,-0.4079 -1.146528,-0.4079 -1.929255,-1.201651 -0.89297,-0.903993 -1.289845,-2.182814 -0.385851,-1.278821 -0.385851,-3.141931 V 0.29765625 h 2.182815 V 10.230566 q 0,1.333942 0.176389,2.105644 0.187413,0.771702 0.617361,1.400088 0.48507,0.716581 1.311894,1.080383 0.837848,0.363803 2.006426,0.363803 1.179602,0 2.006425,-0.352778 0.826824,-0.363803 1.322918,-1.091408 0.429949,-0.628386 0.606338,-1.433161 0.187413,-0.815799 0.187413,-2.01745 V 0.29765625 h 2.182815 z"
         style="fill:#000000;stroke:none;stroke-width:0.264583"
         id="path24" />
      <path
         d="m 105.34837,12.027529 q 0,0.959116 -0.45199,1.896183 -0.44097,0.937067 -1.24575,1.587501 -0.88195,0.705557 -2.06155,1.102432 -1.16857,0.396875 -2.822222,0.396875 -1.774915,0 -3.197052,-0.330729 -1.411113,-0.33073 -2.877347,-0.981164 V 12.964596 H 92.8468 q 1.245747,1.036286 2.877346,1.598526 1.631599,0.56224 3.06476,0.56224 2.028474,0 3.152954,-0.760678 1.13551,-0.760677 1.13551,-2.028474 0,-1.091407 -0.5402,-1.60955 Q 102.00801,10.208517 100.9166,9.9218848 100.08978,9.7013985 99.119636,9.5580823 98.16052,9.4147662 97.080137,9.1942799 94.897322,8.7312586 93.838988,7.6178026 q -1.04731,-1.1244803 -1.04731,-2.921444 0,-2.0615472 1.741842,-3.3734409 Q 96.275362,-3.054738e-7 98.954271,-3.054738e-7 q 1.730819,0 3.174999,0.3307295054738 1.44419,0.3307295 2.55765,0.8157994 v 2.5796902 h -0.15434 q -0.93707,-0.7937508 -2.46945,-1.3118937 -1.52136,-0.5291672 -3.119883,-0.5291672 -1.752867,0 -2.822225,0.7276049 -1.058335,0.7276049 -1.058335,1.8741338 0,1.0252615 0.529167,1.6095503 0.529168,0.5842888 1.86311,0.8929696 0.705556,0.1543405 2.006426,0.3748268 1.30087,0.2204863 2.20486,0.451997 1.83004,0.4850699 2.75608,1.4662341 0.92604,0.9811646 0.92604,2.7450546 z"
         style="fill:#000000;stroke:none;stroke-width:0.264583"
         id="path26" />
      <path
         id="path28"
         style="fill:#000000;stroke:none;stroke-width:1"
         d="m 411.41797,1.125 v 16.396484 h 8.25 V 1.125 Z m 39.20703,0 v 24.333984 h -30.95703 -8.25 v 37.707032 h 8.25 v -30.375 H 450.625 v 30.375 h 8.25 V 1.125 Z"
         transform="scale(0.26458333)" />
    </g>
  </g>
</svg>
